<!-- Background -->
<svg viewBox="0 0 500 500" fill="none" xmlns="http://www.w3.org/2000/svg">
  <ellipse fill-rule="evenodd" stroke="#F5F5DC" cx="249.5" cy="250" rx="213.5" ry="211" fill="#F5F5DC"/>
  <!-- The bottom A -->
  <path fill-rule="evenodd" stroke="#00008B" d="M187.8 335L150 235h26l7.5 21.3h32l8-21.3H250l-38.9 100h-23.3zm3.3-57l8.2 23 8.2-23h-16.4z" fill="#00008B" opacity=".5"/>

  <!-- the hand on the phone -->
  
  <path fill-rule="evenodd" stroke="black" d="M371.3 242l-54.8-42.5v-73.1c0-14.6-15.3-26.4-34-26.4H134c-18.8 0-34.1 11.8-34.1 26.4v247.2c0 14.6 15.3 26.4 34 26.4h231.7c5.4 0 10-3 11.1-7l21.2-81.6c6.6-25.5-3.4-51.4-26.7-69.5zM134.1 117.5h148.3c6.3 0 11.4 4 11.4 8.8v113.3a43.3 43.3 0 00-50.1.2c-14 10.7-14 28-.1 38.8l43.5 35a81.4 81.4 0 00-30.5 30.6H122.7v-218c0-4.8 5.1-8.7 11.4-8.7zm-11.4 256V362h126.6c-1.8 6.2-3 13-3.6 20.5H134c-6.3 0-11.4-4-11.4-8.8zm253-65.7l-19.3 74.5h-88a70.1 70.1 0 0120.4-45.6 58.3 58.3 0 0120.4-13c7.4-2 10-9.5 4.1-14.3l-53.6-43.1c-5-3.9-5-10.2 0-14.1 5-3.9 13.2-3.9 18.2 0 24 19 12.3 9.9 54.3 42.4a13.8 13.8 0 0016 0c4.5-3.5 4.5-9 0-12.5l-31.7-24.5v-33.4l38.8 30c17.9 14 25.5 34 20.4 53.6z" fill="#000"/>

  <!-- The top A -->
  <path fill-rule="evenodd" stroke="#00008B" d="M187.8 125L150 225h26l7.5-21.3h32l8 21.3H250l-38.9-100h-23.3zm3.3 57l8.2-23 8.2 23h-16.4z" fill="#00008B"/>
</svg>